<svg t="1601731820449" class="icon" viewBox="0 0 1024 1024" version="1.1" xmlns="http://www.w3.org/2000/svg" p-id="6327" width="48" height="48"><path d="M342.2478125 213.89841269h-37.7953125c-45.345 0-69.316875 34.47375001-83.1403125 84.0628125l-84.7396875 415.4296875a22.9921875 22.9921875 0 0 0-0.1875 2.87062501c0 47.2509375 37.3059375 85.6415625 83.1609375 85.64156249h589.6846875c45.85875001 0 83.17874999-38.390625 83.17875-85.640625 0-0.94125001-0.08624999-1.925625-0.16312499-2.8715625l-78.42187501-415.4296875c-11.15625001-54.4903125-37.815-84.0628125-83.1365625-84.0628125h-83.836875m-384.1725 85.6171875c9.72-26.2696875 18.744375-43.003125 41.775-43.003125h426.234375c23.0109375 0 33.590625 15.9121875 41.0596875 42.98437501 0.24375001 0.9459375 0.5278125 1.378125 0.901875 2.91374999L830.5625 611.9140377H198.2384375m610.9921875 147.3703125H219.5459375c-22.5984375 0-41.0784375-18.58125001-41.750625-41.7121875l14.7646875-63.043125H836.215625l14.76562501 63.043125c-0.658125 23.1309375-19.1090625 41.7121875-41.75062501 41.7121875z" p-id="6328" fill="#8a8a8a"></path><path d="M613.175 726.6340377h25.880625c9.9271875 0 18.005625-8.289375 18.00562499-18.49875001 0-10.258125-8.0784375-18.5428125-18.00562499-18.5428125H613.175c-9.92624999 0-17.9615625 8.2903125-17.9615625 18.5428125 0 10.2140625 8.0353125 18.49875001 17.9625 18.49875001z m92.289375-8.52937501h13.93875c5.3325 0 9.68624999-4.47375001 9.68625-9.9646875 0-5.5003125-4.348125-10.0125-9.68625-10.0125h-13.93875c-5.3334375 0-9.6871875 4.5121875-9.6871875 10.0125 0 5.4909375 4.35 9.965625 9.6871875 9.965625z m-196.48875 8.52937501h25.8628125c9.9215625 0 17.9615625-8.289375 17.9615625-18.49875001 0-10.258125-8.04-18.5428125-17.9615625-18.5428125h-25.8628125c-9.945 0-17.985 8.2903125-17.985 18.5428125 0 10.2140625 8.04 18.49875001 17.985 18.49875001z m136.5984375-261.61875001c0 5.101875-4.0171875 9.249375-8.98125 9.24937501H430.53124999c-4.9640625 0-8.98125001-4.141875-8.98124999-9.24937501l6.335625-29.36624999c0-5.1075 4.018125-9.249375 8.98125-9.249375h193.3678125c5.00625001 0 9.0234375 4.141875 9.0234375 9.249375l6.316875 29.36624999z" p-id="6329" fill="#8a8a8a"></path></svg>